<svg xmlns="http://www.w3.org/2000/svg" viewBox="0 0 500 500"><path fill="#0183c7" d="M329.9 56.372c5.107 2.055 9.604 3.192 15.1 3.628l1 5 1.793.148C358.85 66.195 358.85 66.195 363 71l-5-1c3.615 3.017 7.339 5.517 11.375 7.938 6.871 4.185 12.916 7.961 18.04 14.25 2.256 2.58 4.832 4.705 7.437 6.925 5.874 5.16 11.285 10.769 16.148 16.887v-3l-1.812-.687c-2.781-1.67-3.752-3.441-5.188-6.313v-2a136 136 0 0 0-5-5.625l-1.445-1.562A924 924 0 0 0 394 93l2-1a242 242 0 0 1 5 5l1.656 1.668c10.087 10.706 23.92 27.42 26.344 42.332l2-1c2.798 5.916 5.415 11.76 7.324 18.027.635 2.041.635 2.041 1.82 4.04C441 164 441 164 440 167l-.76-1.598C433.617 153.65 427.669 142.545 420 132l-1.234-1.705C412.72 122.015 406.075 114.412 399 107l-2.426-2.586c-12.138-12.595-29.243-27.178-45.886-33.101L347 70v-2l-2.625-.312c-3.542-.722-6.218-1.96-9.375-3.688l1 1 3 3c-11.007-3.597-11.007-3.597-14-5l-1-2h-4l-2-3c-1.845-.729-1.845-.729-4-1.062l-2.465-.477L309 56a2524 2524 0 0 1-4.562-.937Q301.719 54.529 299 54l-1.892-.38c-2.097-.422-4.196-.834-6.295-1.245l-2.016-.41c-3.182-.614-6.102-.962-9.348-.926C276 51 276 51 272.73 50.047c-4.823-1.354-9.428-1.597-14.417-1.797l-3.042-.128c-9.123-.289-18 .427-27.04 1.593-5.025.641-10.063 1.172-15.106 1.66-3.388.678-3.9 1.206-6.125 3.625-5.08 2.209-5.08 2.209-8.391 1.457-3.05-.534-4.587-.084-7.472.977l-2.686.966-2.763 1.038-2.823 1.025Q179.427 61.715 176 63l2 3h2l1-3c3.76-1.623 6.92-2.24 11-2-2.729 1.82-5.48 3.278-8.418 4.723-2.01.994-4.01 2.005-6.008 3.023l-1.844.937q-2.683 1.363-5.363 2.731C167 74 167 74 163.633 75.024L161 76l-1 3c-1.848.73-1.848.73-4.062 1.188l-2.223.48L152 81l-1-2c-17.531 9.564-17.531 9.564-30 24h-3c-2.54 1.752-4.74 3.904-7 6l-2.687 2.438c-2.279 2.524-3.686 4.901-5.286 7.863-2.091 3.459-5.01 5.99-8.297 8.281-3.763 3.333-6.248 7.226-8.98 11.418l-1.64 2.445c-2.843 4.062-2.843 4.062-4.582 8.63-.655 2.389-1.77 3.215-3.528 4.925-1.182 2.117-1.182 2.117-2.191 4.492l-1.174 2.637-1.197 2.746-1.21 2.723C68.412 171.705 66.653 175.823 65 180c2.804-2.804 4.759-6.276 6-10h2c.235-.822.47-1.645.71-2.492 1.544-4.198 3.616-7.811 5.915-11.633l1.34-2.244A815 815 0 0 1 85 147l1.202-1.957c4.597-7.405 4.597-7.405 6.798-10.043h3l-1.355 1.871C87.278 146.14 87.278 146.14 84 157h-3l-.285 2.16c-.836 3.319-2.228 5.457-4.152 8.278-2.575 3.778-4.275 7.166-5.563 11.562h2l.813-2.25c1.13-2.616 2.396-4.552 4.187-6.75-.785 5.01-2.825 9.054-5.04 13.574L72 186l1 2-1 2h-3l.188 2.75C69 196 69 196 67.648 197.656c-2.403 3.417-3.172 7.083-4.21 11.094l-.631 2.344C61.48 216.048 60.233 221.022 59 226l2 1-2 9h-2c.01.59.02 1.18.032 1.788.041 2.675.067 5.35.093 8.025.017.928.034 1.857.05 2.814l.02 2.705.032 2.491C57 256 57 256 55 259c-.39 1.99-.732 3.99-1 6l2 1c1.671 2.463 2.061 3.58 1.625 6.563L57 275c-.244 2.897-.244 2.897.977 4.742 1.858 4.1 1.382 8.7 1.484 13.14L60 296c1.953 1.211 1.953 1.211 4 2 .54 1.848.54 1.848.625 4.063.786 10.95 3.41 22.972 11.375 30.937l.938 2.5c.92 2.802.92 2.802 4.062 4.5a196 196 0 0 1 3 7l1.75 2.625C87 352 87 352 86.688 354.813L86 357l1.875.563C91.02 359.69 90.982 362.407 92 366a119 119 0 0 0 5 6l1.414 2.402c1.623 2.659 3.407 4.757 5.524 7.036 2.302 2.534 4.471 4.985 6.312 7.875 1.724 2.647 3.491 4.493 5.75 6.687l1.422 1.742c4.16 5.092 8.713 8.77 14.125 12.496 2.056 1.477 3.68 2.98 5.453 4.762l2.25.813c2.616 1.13 3.928 2.12 6 4 5.213 4.643 10.81 8.055 17.75 9.187v2l2.066.824q3.11 1.246 6.211 2.508c15.02 6.075 29.86 11.264 45.723 14.668l2.367.51c12.223 2.485 24.455 2.796 36.883 2.865l2.282.024c11.151.09 21.55-1.193 32.468-3.399a794 794 0 0 1 5.332-.922C323.125 443.25 349.05 432.13 371 416l3.148-2.234c7.799-5.654 15.04-11.955 21.852-18.766l-2-2 3-1 1-19-4-1v-1h11l-1 2h-2l1 15c5.626-6.145 10.996-12.339 16-19l1 2h6l1.023 2.484 1.352 3.266 1.336 3.234A103 103 0 0 0 433 387l1.277-3.246 1.66-4.191.842-2.143c2.108-5.307 2.108-5.307 3.221-6.42 2.67-.141 5.324-.042 8 0l-1 2h-3c.08 3.126.194 6.25.313 9.375l.068 2.695.107 2.578.08 2.38c.28 2.372.28 2.372 3.432 3.972h-11l2-2c.243-2.899.243-2.899.125-6.125L439 380l-5 13h-4l-5-13-1 12 3 1v1h-9l3-3c.5-2.018.5-2.018.512-4.23l.107-2.432.069-2.525.103-2.561c.082-2.084.147-4.168.209-6.252-4.673.834-6.647 3.698-9.5 7.25l-1.434 1.738c-2.722 3.31-5.395 6.66-8.066 10.012l2 2-2.59.625c-4.278 1.725-6.742 4.162-9.972 7.375-11.402 10.924-24.886 22.349-39.416 28.89-2.154 1.06-2.154 1.06-3.975 3.064-2.153 2.152-4.113 3.37-6.8 4.78l-2.814 1.48-2.995 1.536-3.082 1.597a266 266 0 0 1-22.327 10.154c-3.912 1.566-7.453 3.238-11.029 5.499-12.16 6.348-25.288 8.16-38.879 7.957-2.107-.202-2.107-.202-3.121 1.043-1.52.072-3.042.084-4.562.063l-2.504-.028L249 468v-2l-1.836.219c-8.554.947-16.804 1.57-25.164-.781-2.372-.52-4.58-.505-7-.438l-1-3-2.75.625c-3.429.396-4.403.103-7.25-1.625-1.417 0-2.834.026-4.25.07-16.194.322-29.647-5.768-43.75-13.132l-2.39-1.247c-4.824-2.575-9.226-5.42-13.61-8.691l1-3-1.75-1.242-2.25-1.633-2.25-1.617L133 429v-2l-1.687-.812c-5.634-2.893-11.21-5.878-13.313-12.188l-1.937-.937C114 412 114 412 113.063 410c-.903-2.23-.903-2.23-3.375-2.875C107 406 107 406 104.563 403c-2.303-3.218-2.303-3.218-5.75-4.062C96 398 96 398 94.625 395.563 94 393 94 393 94 390l-3-1a221 221 0 0 1-3-6 109 109 0 0 0-3.937-4.687C49.61 337.07 36.257 281.196 40.464 228.444c3.166-32.011 14.05-63.835 31.196-91.042 1.48-2.445 1.48-2.445 2.274-5.586C75 129 75 129 76.922 127.875L79 127c1.703-1.82 1.703-1.82 3.25-4a396 396 0 0 1 8.188-10.562l2.058-2.567L94 108l-4 2c1.485-3.237 3.327-5.933 5.5-8.75l1.844-2.422L99 97h2l.688-1.687c1.688-2.975 3.779-5.033 6.312-7.313h2c.23-.574.461-1.147.7-1.738 3.958-6.884 12.893-11.794 19.363-16.324l1.696-1.195C135.754 66 135.754 66 138 66v2l2.055-1.32c2.975-1.904 5.96-3.792 8.945-5.68l2.5-1.625c6.42-4.055 13.195-7.24 20.5-9.375 2 1 2 1 3 2a68 68 0 0 0 4.563-.437l2.503-.31L184 51l1-3c5.162-2.8 10.319-3.152 16.059-2.902 2.673-.135 3.982-1.365 5.941-3.098l3 1c1.783-.186 3.565-.381 5.34-.625 39.094-5.213 78.071-.948 114.56 13.997M254 46v1h11v-1zm-86 7-2 2 4-1zm172 7v2l2-1zm-192 4-2 3 5-2zm17.875 3-3.32 1.688L160 70l2 4 13-6-1-4c-3.121 0-5.37 1.593-8.125 3M141 68c-1.895.972-1.895.972-3.687 2.438l-1.887 1.433L134 73l2 1c2.03-.994 2.03-.994 4.125-2.437l2.195-1.434L144 69zm-8 2-1 2 3-1zm-1 4-1 2 3-1zm-3 2-1 2 3-1zm-4 3-1 2 3-1zm-19.875 14.688-1.732 1.692c-2.692 2.687-5.001 5-6.393 8.62 3.762-1.254 5.272-3.142 8-6 5.53-5.668 11.665-10.284 18-15l-1-3c-5.919 0-12.775 9.643-16.875 13.688M412 117c1.548 3.347 3.491 6.247 5.625 9.25l1.914 2.703L421 131c1.36-2.913 1.36-2.913-.074-5.191l-1.613-2.371-1.575-2.38c-1.794-2.125-3.183-3.028-5.738-4.058m11 15 1 2Zm2 3 1 2Zm5 8 1 2ZM69 181l1 2Zm-1 2a632 632 0 0 0-2.062 5.375l-1.16 3.023c-1.087 2.554-1.087 2.554.222 4.602l5-11zm-6 3 1 3Zm-1 3-3 11 3-1c.806-2.106.806-2.106 1.188-4.562l.48-2.504L63 190zm2 7c-1.423 3.823-2.24 6.913-2 11 2.12-3.534 2.532-6.944 3-11zm-6 11 1 2Zm3 0 1 3Zm-1 4 1 4Zm-1 6 1 3Zm-1 5 1 3Zm1 5 1 2Zm-2 1 1 3Zm-1 10c-.982 4.053-1.082 7.839-1 12h1c.982-4.053 1.082-7.839 1-12zm2 45-1 3h2zm2 15 1 2 1-2zm1 3 1 3Zm3 1 1 2Zm-2 4 1 2Zm1 3 1 3Zm1 5 1 2Zm5 12 1 2Zm3 8 1 2Zm1 2 1 2Zm7 7 1 2Zm2 5 1 2Zm1 2 1 2Zm1 2 1 2Zm13 43 1 2 2-1zm61 49-1 2c5.547 3.616 5.547 3.616 12 4-3.41-2.865-6.907-4.347-11-6m20 2 4 2-1-2zm139 1 2 2v-2zm-148 3 1 2 2-2zm21 0v2l3-1zm-17 1 1 2 3-1zm4 2 1 2h3l1 2v-3zm22 1c4.903 3.268 9.132 4.28 15 4v-1a852 852 0 0 0-5.25-1.5l-2.953-.844c-2.967-.808-2.967-.808-6.797-.656m19 2v1h7v-1zm9 1c6.26 3.13 10.237 3.032 17 2v-1zm58 0 4 1Zm-69 1v1h5v-1zm32 0v1h14v-1zm-6 2-1 2c7.564.206 7.564.206 15-1v-1zm16 1 4 1Zm21 2 4 1Z"/><path d="M326 140c1.875 1.063 1.875 1.063 3 3 2.979 16.994-6.804 34.437-13.11 49.828q-1.397 3.41-2.788 6.823c-7.661 18.758-15.516 37.422-23.664 55.974a1811 1811 0 0 0-17.063 40.125l-.982 2.383c-7.43 18.041-14.074 36.186-19.518 54.93l-.78 2.675c-3.22 11.092-6.255 22.184-8.532 33.512l-.66 3.149c-1.08 5.442-1.08 5.442.562 10.585L244 405l-1 3c-2.592-.35-4.511-.645-6.648-2.199-3.225-4.297-1.644-11.505-1-16.562.479-2.745 1.041-5.457 1.648-8.176l.676-3.096c12.272-54.779 36.31-106.658 57.942-158.27A2340 2340 0 0 0 309 187l1.617-4.002q2.115-5.246 4.193-10.508a664 664 0 0 1 1.617-4.035c3.025-7.493 5.429-14.319 5.573-22.455-4.793 1.582-8.448 4.25-12.437 7.25l-2.115 1.589C297.215 162.714 288.275 172.113 280 182a790 790 0 0 1-3.812 4.5l-1.708 2.031C273 190 273 190 271 190l-.777 1.773c-1.329 2.42-2.788 3.959-4.786 5.852-2.577 2.42-2.577 2.42-4.437 5.375h-2l-.738 1.734c-1.487 2.67-3.243 4.404-5.45 6.516-2.776 2.715-5.474 5.425-8 8.375-3.438 4.016-7.06 7.843-10.687 11.688-4.013 4.263-7.914 8.54-11.562 13.125-24.224 30.245-24.224 30.245-34 32C186 276 186 276 183.838 273.82c-5.748-8.821 1.332-28.432 3.226-38.314 3.865-17.77 3.865-17.77 1.936-35.507-5.495.662-7.326 3.003-10.77 7.105C169.58 218.333 162.697 230.541 156 243l-2.242 4.113c-4.793 8.857-9.197 17.875-13.507 26.976C135.327 284.473 130.179 294.74 125 305l-4-1c.482-7.66 3.06-14.258 5.813-21.375l.734-1.912c28.54-74.168 28.54-74.168 54.453-87.713 2.063-.469 2.063-.469 4-.5.64-.03 1.279-.062 1.938-.094 3.448.993 4.857 2.8 7.062 5.594.733 3.142.661 6.174.563 9.387l-.046 2.789c-.338 10.74-2.386 21.135-4.517 31.637q-.866 4.37-1.712 8.745-.52 2.685-1.068 5.366c-1.011 5.128-1.388 9.848-1.22 15.076 10.838-6.833 18.154-15.81 25.905-25.813 4.12-5.294 8.551-10.253 13.095-15.187 4.902-5.467 9.532-11.111 14.082-16.875L242 211h2l.77-1.766c1.363-2.476 2.872-4.04 4.917-5.984 4.641-4.523 8.888-9.312 13.012-14.309l1.613-1.941 1.426-1.75C267 184 267 184 269 184l.643-1.626c1.867-3.266 4.423-5.725 7.072-8.354l1.728-1.735q1.815-1.818 3.64-3.628c1.824-1.814 3.637-3.638 5.45-5.464C314.46 136.232 314.46 136.232 326 140M431 171c2.063.438 2.063.438 4 1 .627 1.785.627 1.785 1 4a85 85 0 0 1-4.937 7.438q-1.528 2.135-3.047 4.277l-1.541 2.163c-3.399 4.89-6.407 10.022-9.475 15.122l2.659.076q4.914.143 9.829.296 2.121.065 4.242.125 3.06.089 6.122.187l3.713.11c3.213.193 6.274.612 9.435 1.206l1-4v4l2.852.148 3.773.227c1.23.07 2.46.14 3.727.21 3.485.396 6.378 1.178 9.648 2.415v3l-3.125-.217c-12.674-.82-25.303-.9-38-.845q-3.057.008-6.113.013-7.38.017-14.762.049l-.884 2.774c-.858 2.48-1.705 4.573-2.971 6.843l-1.114 2.038-1.219 2.22C374.443 283.093 374.443 283.093 369 346c2.918 2.086 2.918 2.086 6 3v3c-2.583.957-3.865 1.036-6.562.313-3.778-2.034-5.1-4.3-6.438-8.313-1.854-26.524 7.502-52.33 16-77l-1.809 1.8C368.2 276.438 359.42 282.26 350 288l-2.914 1.805c-3.892 2.304-6.437 3.765-11.086 3.195-1.809-1.266-1.809-1.266-3-3-.216-12.958 7.448-25.296 13.748-36.185l1.275-2.21 1.154-1.964c.972-1.633.972-1.633.823-3.641-3.137.933-4.716 1.634-6.75 4.25-1.338 2.944-1.878 5.548-2.25 8.75l-2.227-.281c-3.818.387-4.722 1.873-7.148 4.781l-2.367 2.777L327 269c-15.371 17.977-15.371 17.977-23 21-3.647-.688-5.382-1.382-8-4-1.426-12.016 4.217-24.351 11-34 .4-.583.8-1.165 1.21-1.766 3.663-4.866 8.373-8.42 14.317-9.836 4.93-.637 8.908-.625 13.473 1.602l1.563 1.688c1.397 1.58 1.397 1.58 3.75 1.25 2.878-.866 2.878-.866 5.687-3.063 3-1.875 3-1.875 5.875-1.625L355 241c1.263 3.79.54 4.614-1.133 8.156l-1.445 3.102-1.547 3.242-2.945 6.281-1.477 3.13a1099 1099 0 0 0-4.207 9.046l-1.182 2.57c-1.614 3.752-2.85 7.574-4.064 11.473 6.977-2.467 12.72-5.496 18.625-9.937l2.305-1.695c6.2-4.602 12.211-9.434 18.12-14.405C380.795 258 380.795 258 383 258l1.063-3.5c3.711-11.084 8.825-21.73 14.36-32.008 2.19-4.2 3.006-7.82 3.577-12.492q-10.263-.038-20.526-.055-3.475-.008-6.95-.02c-12.079-.045-24.137.002-36.208.516l-2.805.119c-4.045.193-8.02.476-12.03 1.037C320 212 320 212 318 211v-4c10.802-.841 21.589-1.083 32.42-1.13q3.405-.016 6.81-.04c12.943-.083 12.943-.083 18.902-.08q5.847-.002 11.694-.062 2.208-.015 4.417-.005c2.048.01 4.093-.011 6.141-.04l3.516-.01c4.045-.826 5.5-2.5 8.1-5.633a125 125 0 0 0 3.563-6.437C418.107 185.125 424.229 177.77 431 171m-119 87c-8.073 10.85-8.073 10.85-11.187 23.375L301 285c4.78-.435 7.358-2.666 10.688-5.875l1.58-1.49c5.195-4.958 10.03-10.209 14.732-15.635l1.32-1.488a413 413 0 0 0 3.868-4.45l2.292-2.652c1.745-2.246 1.745-2.246 1.383-4.601-.83-1.998-.83-1.998-2.863-3.809-9.114-1.608-16.757 6.679-22 13"/><path fill="#0083c7" d="M245 56q6.053.323 12.103.69 2.049.12 4.099.23c9.223.491 17.872 1.683 26.798 4.08l-1 2-1.941-.437C279.919 61.46 275.253 60.772 270 61c1.51 1.51 2.9 1.213 5.008 1.316l2.492.127 2.625.12 2.555.13c4.78.234 9.535.352 14.32.307-1 2-1 2-2.625 2.563L292 66l-3.5.688c-3.5.312-3.5.312-5.28-.652-3.127-1.46-5.791-1.295-9.232-1.302l-2.066-.008c-2.203-.003-4.406.01-6.61.024l-2.254.005c-10.792.03-21.398.422-32.058 2.245v1l-3.812.563-2.145.316C223 69 223 69 220 68c-4.562.956-8.706 2.178-13 4h-1a313 313 0 0 0-4.062 1.688c-4.734 1.907-9.52 3.564-14.375 5.124l-2.116.7c-5.094 1.606-5.094 1.606-8.447.488a85 85 0 0 0-7 2.625l-2.021.833c-4.953 2.058-9.834 4.262-14.694 6.53C151 91 151 91 147.875 91.938 143.468 93.566 139.82 96.3 136 99l-2-1c19.792-15 19.792-15 25-15l1-2c1.672-.746 1.672-.746 3.75-1.437 2.612-.915 4.616-1.788 7-3.25C173 75 173 75 177 75l1-3 2.426.672c4.774.438 8.287-.865 12.762-2.422q2.53-.842 5.062-1.68l2.46-.823c4.38-1.43 8.829-2.604 13.29-3.747l-5-1c3.12-1.793 5.677-2.343 9.25-2.625l2.703-.227L223 60l-2 2 37-2c-14.539-.377-14.539-.377-23 1-2.68.108-5.316.047-8 0 2.905-2.905 6.211-2.713 10.125-3.125l2.285-.262c1.863-.212 3.726-.413 5.59-.613z"/><path fill="#6047e6" d="m419 369 1 2h6l1.023 2.484 1.352 3.266 1.336 3.234A103 103 0 0 0 433 387l1.277-3.246 1.66-4.192.842-2.142c2.108-5.307 2.108-5.307 3.221-6.42 2.67-.141 5.324-.042 8 0l-1 2h-3c.08 3.126.194 6.25.313 9.375l.068 2.695.107 2.578.08 2.38c.28 2.372.28 2.372 3.432 3.972h-11l2-2c.243-2.899.243-2.899.125-6.125L439 380l-5 13h-4l-5-13-1 12 3 1v1h-9l3-3c.5-2.018.5-2.018.512-4.23l.107-2.432.068-2.526.104-2.56c.082-2.084.147-4.168.209-6.252-4.673.834-6.647 3.698-9.5 7.25l-1.434 1.738c-2.722 3.31-5.395 6.66-8.066 10.012l2 2h-11l3-2c.506-2.023.506-2.023.512-4.352l.107-2.578.068-2.695.104-2.719q.124-3.327.209-6.656l-4-1v-1h11l-1 2h-2l1 15c5.626-6.145 10.996-12.339 16-19"/><path fill="#0083c7" d="M329 437c-2.945 1.963-4.577 2.491-7.965 3.184-.965.205-1.93.41-2.924.623q-3.042.63-6.086 1.25l-2.927.627-2.672.548c-2.652.84-4.227 2.103-6.426 3.768a76 76 0 0 1-8.312.688l-2.47.1c-10.4.377-20.813.303-31.218.212v-2c5.992-.799 11.749-1.035 17.79-.965 4.555-.05 9.06-.474 13.593-.914C292 444 292 444 294 445v-2l1-1c-8.831-.17-8.831-.17-17.625.5-9.995 1.252-19.474.119-29.375-1.5v-1l2.5.016q5.75.031 11.5.046l2.078.006c9.063.018 18.054-.14 27.086-.947 2.836-.121 2.836-.121 4.84.406 2.918.691 5.368.102 8.308-.402l3.473-.578L311 438c6.598-1 6.598-1 8-1 3.694-1.231 6.206-.644 10 0m-24 3v1h5v-1zm-5 1v1h5v-1zM132 99l2 1c-3.552 4.605-7.138 8.759-12 12a791 791 0 0 0-3 5c-3.32 3.856-3.32 3.856-6.062 4.438-2.232.41-2.232.41-3.438 3.062-1.5 2.5-1.5 2.5-3.687 3.313L104 128l.813 1.625C105 132 105 132 102.75 135.063q-1.356 1.486-2.75 2.937l-1.687 1.875C97 141 97 141 95 141l-.687 1.938a117 117 0 0 1-3.688 7.812c-.6 1.168-.6 1.168-1.21 2.36C88 155 88 155 85.834 155.765L84 156c1.551-3.28 3.404-6.27 5.375-9.312 2.05-3.187 4.048-6.368 5.875-9.688 1.467-2.514 2.744-3.994 4.75-6l.438-2.062c.185-.64.37-1.28.562-1.938l4-2c.652-2.025.652-2.025 1-4l2-1v-2a769 769 0 0 1 5-3 170 170 0 0 0 5.352-4.695C120 109 120 109 123 108l1-3c1.848-1.605 1.848-1.605 4.063-3.187l2.222-1.606z"/><path fill="#7836ee" d="m311.313 369.813 3.8.082L318 370v6h-3l-1.312-1.5c-1.69-1.795-1.69-1.795-4.688-1.812-3.18.095-3.18.095-6 2.312-1.446 4.34-1.52 8.466-1 13 1.358 2.776 1.358 2.776 4 4 3.668.334 3.668.334 7 0l1-5-5-1v-2h11v2h-2v8c-5.58 1.44-11.455 1.996-16.875-.125-3.73-3.292-4.975-6.472-5.5-11.375.419-3.91 1.214-6.22 3.375-9.5 4.103-3.159 7.213-3.33 12.313-3.187"/><path fill="#7b39ed" d="M261 371h20v8c-2-1-2-1-2.836-3.016-.985-2.203-.985-2.203-3.328-2.593l-2.461-.141-2.477-.172L268 373v8l5-1 1-3h2v10h-2l-2-3-4-1 1 9c4.579-.112 4.579-.112 9-1 2.162-2.903 2.162-2.903 3-6h1l-1 9h-20l2-2c.369-2.03.369-2.03.414-4.352l.117-2.578.094-2.695.117-2.719q.142-3.327.258-6.656h-3z"/><path fill="#7a38ed" d="m361.041 370.886 2.65.016 2.862.01 3.01.025 3.021.014q3.708.018 7.416.049l1 8h-2l-.625-2.438L377 374l-6-1v19l5 1v1h-13l3-2c.506-2.023.506-2.023.512-4.352l.107-2.578.068-2.695.104-2.719q.124-3.327.209-6.656h-6l-1 6h-2q-.061-3.5 0-7c1-1 1-1 3.041-1.114"/><path fill="#7a37ed" d="M440 371h8l-1 2h-3c.08 3.126.194 6.25.313 9.375l.068 2.695.107 2.578.08 2.38c.28 2.372.28 2.372 3.432 3.972h-11l2-2c.243-2.899.243-2.899.125-6.125l-.055-3.32L439 380l-3 7h-2c1.564-5.614 3.164-10.868 6-16"/><path fill="#0083c7" d="M281 40c7.051.42 13.899 1.005 20.8 2.54 2.412.543 2.412.543 5.762.835 3.634.66 6.43 1.809 9.75 3.371 3.385 1.58 6.814 3.041 10.25 4.504L334 54v2l4 2c-3.562-.601-6.528-1.574-9.812-3.062C313.033 48.512 297.325 43.305 281 41z"/><path fill="#7b39ed" d="M334 371h11l-1 2h-3c.08 3.126.194 6.25.313 9.375l.068 2.695.107 2.578.08 2.38c.28 2.372.28 2.372 3.432 3.972h-11l2-2c.369-2.03.369-2.03.414-4.352l.117-2.578.094-2.695.117-2.719q.142-3.327.258-6.656l-3-1z"/><path fill="#7b37ee" d="M394 371h11l-1 2h-2l.035 3.648q.015 2.364.027 4.727l.026 2.406c.025 5.992.025 5.992-1.088 8.219l4 2h-11l3-2c.506-2.023.506-2.023.512-4.352l.107-2.578.068-2.695.104-2.719q.124-3.327.209-6.656l-4-1z"/><path fill="#0083c7" d="m143 414 1.703.855q2.291 1.142 4.594 2.258c4.69 2.293 9.156 4.723 13.543 7.551 4.273 2.643 8.731 4.967 13.16 7.336v2l-2.687-.937c-3.173-1.108-3.173-1.108-6-1.5-2.723-.663-3.443-1.538-5.313-3.563-2.399-1.578-4.637-2.866-7.332-3.863-2.978-1.269-5.356-2.873-7.98-4.762l-2.676-1.914L142 416z"/><path fill="#0083c6" d="M349 57v2l5 1v2l1.938.688c7.103 3.044 13.158 6.947 19.117 11.859 1.983 1.64 1.983 1.64 4.945 2.453v2l3 1-1 2c-3.5-2.028-6.717-4.241-9.937-6.687-7.345-5.394-15.19-9.914-23.364-13.938-2.442-1.244-3.934-2.316-5.699-4.375 3.75-1.125 3.75-1.125 6 0"/><path fill="#0083c7" d="M212 39c-2.978 1.985-4.938 2.633-8.367 3.473l-3.184.787-3.324.803-3.3.814C189.228 46.005 184.644 47.1 180 48c4.908-6.485 11.875-7.198 19.57-8.402A83 83 0 0 1 212 39M121 392c2.971 1.37 5.367 2.963 7.89 5.04l2.15 1.757 2.21 1.828 2.258 1.852q2.75 2.256 5.492 4.523l-1 3c-2-1-2-1-3-4h-4l-.75-1.812c-1.445-2.529-2.852-3.566-5.25-5.188-3.034-2.053-4.59-3.592-6-7M223 439c3.292.453 6.584.914 9.875 1.375l2.781.383A270 270 0 0 1 254 444l-1 2c-6.534.251-6.534.251-8.695-.914-4.146-1.953-8.78-2.26-13.282-2.941-5.818-.94-5.818-.94-8.023-3.145"/><path fill="#0084c7" d="M196 436c3.95.551 7.35 1.39 11 3v2l10 2v2c-6.599-1.528-12.874-3.076-19-6v-2zM143 409l5 2v2l5 1v3l5 2-2 1c-2.496-1.145-2.496-1.145-5.437-2.812l-2.934-1.645A116 116 0 0 1 142 412z"/><path fill="#0083c8" d="m272 35 3.438.5c5.552.692 11.203 1.286 16.562-.5l3 2c-2 2-2 2-5.266 2.047l-3.984-.297-3.953-.266c-3.521-.449-6.488-1.23-9.797-2.484z"/><path fill="#0083c6" d="M211 56v3c-1.58.392-3.164.763-4.75 1.125l-2.672.633c-2.907.273-4.145-.223-6.578-1.758 9.41-3.444 9.41-3.444 14-3"/><path fill="#0083c7" d="M221 445q2.719.21 5.438.438l3.058.246C232 446 232 446 233 447c2 .04 4 .043 6 0l1 2q-3.187.039-6.375.063l-3.586.035C227 449 227 449 225 448v-2z"/><path fill="#0083c8" d="M106 406a367 367 0 0 1 3.438 2.813l1.933 1.582C113 412 113 412 114 415h2l1 3c-4.666-2.074-8.161-4.742-11-9z"/><path fill="#7b38ef" d="M303 364h2v2c3.625.201 5.865-.142 9-2-.375 1.938-.375 1.938-1 4-2.763 1.381-4.947 1.19-8 1l-2-2z"/><path fill="#0084c7" d="M187 426c3.83.677 7.387 1.736 11.063 3 3.294 1.13 6.542 2.218 9.937 3-5.062 1.747-8.61-.017-13.312-1.937l-2.245-.881A574 574 0 0 1 187 427z"/><path fill="#0083c8" d="M224 436c5.03.525 10.019 1.106 15 2-3.259 2.172-3.82 2.236-7.5 1.813l-2.344-.231c-2.503-.676-3.508-1.622-5.156-3.582M231 55h14l-1 2-17 1 4-1z"/><path fill="#0084c6" d="M237 52v1q-2.812.508-5.625 1l-3.164.563c-3.117.424-6.07.512-9.211.437 5.31-3.54 11.787-3.13 18-3"/><path fill="#0083c7" d="M173 425c5.196 1.599 10.066 3.741 15 6-1.64.684-1.64.684-4 1-2.797-1.215-2.797-1.215-5.75-2.937l-2.984-1.715L173 426z"/><path fill="#0084c7" d="m187.066 66.902 2.496.035 2.504.028L194 67c-2.176 2.176-3.56 2.719-6.437 3.688l-2.372.824C183 72 183 72 180 71l1.938-1.437c3.403-2.58 3.403-2.58 5.128-2.66M115 123l2 1-9 10-2-1z"/><path fill="#7535f0" d="m399 364 3 1-1 4-4-1v-3z"/><path fill="#0083c6" d="m92 358 5 5-2 3c-2.062-2.312-2.062-2.312-4-5z"/><path fill="#0082c9" d="M438 336c1 3 1 3-.215 5.7l-1.723 2.988-1.714 3.011L433 350l-1-2c1.215-2.82 1.215-2.82 2.938-6.125l1.714-3.32z"/><path fill="#0084c9" d="M449 307c1.434 3.788.51 6.065-.937 9.75l-1.153 2.984L446 322c-1.285-3.855-.405-5.403.938-9.187l1.152-3.293z"/><path fill="#7a35f0" d="m338 364 4 2-1 3-4-1z"/><path fill="#0083c7" d="m125 110 2 1c-1.333 4-3.496 4.838-7 7 1.372-2.954 2.989-5.44 5-8M208 63c-1.187 1.5-1.187 1.5-3 3-2.687.188-2.687.188-5 0v-2c2.928-.976 4.956-1.082 8-1"/><path fill="#0083c6" d="m266 54 11 2v1c-7.429.143-7.429.143-11-1z"/><path fill="#0084c7" d="m182 435 11 4c-5.14 1.285-6.378.222-11-2z"/><path fill="#0082c8" d="m268 49-1 2h-11v-1c4.064-.774 7.864-1.098 12-1"/><path fill="#0084c8" d="m239 439 8 1-1 2-7-1z"/><path fill="#0084c7" d="m425 360 1 2-5 7c0-3.999 1.726-5.802 4-9"/><path fill="#0083c7" d="M277 57h10l1 2-11-1z"/><path fill="#0084c8" d="M199 441c2.962.613 4.38 1.254 7 3l-8-1zM333 433c2.125.375 2.125.375 4 1l-2 2c-2.125-.375-2.125-.375-4-1z"/><path fill="#0082c8" d="M223 69c-3.644 2.43-5.712 2.162-10 2v-1c3.406-.778 6.508-1.1 10-1"/><path fill="#0083c7" d="m134 103 2 1-5 4-2-1zM251 53h9v2l-9-1z"/><path fill="#0083ca" d="M304 38c5.75 1.75 5.75 1.75 8 4-2.875-.312-2.875-.312-6-1z"/><path fill="#0083c8" d="M121 398c3.161 1.37 3.993 1.99 6 5-3.161-1.37-3.993-1.99-6-5M108 381c1.938.813 1.938.813 4 2l1 3h-2v-2h-2z"/><path fill="#0083c7" d="m102 370 5 4-1 2a91 91 0 0 1-4-4z"/><path fill="#0085c7" d="M173 67c-1.812 1.063-1.812 1.063-4 2l-3-1c3.625-2.125 3.625-2.125 7-1"/><path fill="#0085c8" d="m105 378 3 3-3 1z"/><path fill="#0082c9" d="M441 167c1.563 1.813 1.563 1.813 3 4l-1 3c-1.46-2.647-2-3.894-2-7"/><path fill="#0083c7" d="M383 85c3.875 1.75 3.875 1.75 5 4l-5-2z"/><path fill="#0083c8" d="m173 84 1 2-6 2c1.634-1.708 2.87-2.935 5-4"/><path fill="#0082c6" d="m101 402 4 2-3 1z"/><path fill="#0084c9" d="M82 164c0 3 0 3-1 5l-2-1z"/><path fill="#0083c8" d="M83 118v3l-3 2c1.875-3.875 1.875-3.875 3-5M212 438h5l1 2-6-1z"/><path fill="#0084c8" d="m207 433 4 1-4 1z"/><path fill="#0084c9" d="m106 382 4 4-4-2z"/><path fill="#0085c8" d="m430 352 1 2-3 3z"/><path fill="#0084c7" d="M126 96v3h-3z"/><path fill="#0084c9" d="m391 87 1 2 2 1h-3z"/><path fill="#0083c6" d="M270 65h7v1h-7z"/><path fill="#0083c7" d="m442 327 1 3-2 2z"/><path fill="#0082cd" d="m444 322 1 3-2 2z"/><path fill="#0083cb" d="m142 97 2 1-4 2v-2z"/><path fill="#0084c6" d="M289 58h4v2z"/><path fill="#0085c7" d="m299 56 3 1-4 1z"/><path fill="#0085c8" d="m279 51 5 1-4 1z"/><path fill="#0084c5" d="M274 450h5v1h-5z"/><path fill="#0084d3" d="M193 440h4l-1 2z"/><path fill="#0083ca" d="m329 435 3 1-3 1z"/><path fill="#0083c8" d="m177 433 3 1-3 1z"/><path fill="#0085c7" d="m117 420 3 1-1 2z"/><path fill="#0084c7" d="m115 384 3 3-3-1z"/><path fill="#0086ca" d="m108 377 3 1-1 2z"/><path fill="#0081cc" d="m66 309 2 4-2-1z"/><path fill="#0085c9" d="m131 96 3 1-3 1z"/><path fill="#00b5de" d="m177 46 1 2-4-1z"/><path fill="#0084c7" d="m180 434 2 1h-3z"/><path fill="#0082c6" d="m338 432 2 1h-3z"/><path fill="#0081ca" d="m128 426 3 1h-3z"/><path fill="#0085c6" d="m167 422 3 1h-3z"/><path fill="#0081cc" d="m138 399 3 1h-3z"/><path fill="#0082c7" d="M427 357v3Z"/><path fill="#0084c6" d="m86 355 2 1-1 2z"/><path fill="#0083c9" d="M128 111v3Z"/><path fill="#0083c8" d="m389 90 3 1h-3z"/><path fill="#0089cc" d="m155 89 2 1h-3z"/><path fill="#0086c7" d="m388 86 3 1h-3z"/><path fill="#0085c9" d="m164 69 2 1h-3z"/><path fill="#0081cf" d="m312 60 3 1h-3z"/><path fill="#0089c8" d="m195 461 2 2h-2z"/><path fill="#0083c4" d="m125 423 2 2h-2z"/><path fill="#0086c7" d="M135 408h2l-1 2z"/><path fill="#0081c5" d="M119 388h2l-1 2z"/><path fill="#0092dc" d="m87 383 2 2h-2z"/><path fill="#0084c8" d="m105 134 1 2-2-1z"/><path fill="#0084c5" d="m84 116 2 1-2 1z"/><path fill="#0084ca" d="m137 88 2 1-2 1z"/><path fill="#0084c5" d="m373 77 2 2h-2z"/><path fill="#0083ca" d="M327 48h2l-1 2z"/></svg>